<svg xmlns="http://www.w3.org/2000/svg" viewBox="0 0 1200 1200"><g id="Layer_5" data-name="Layer 5"><path d="M217,263.09h0c4-12.83,18.51-20.23,32.17-16.44L412.7,292a26.22,26.22,0,0,1,9.28,4.69,19,19,0,0,1,9.54,16.23v74.74l544.9,81.19,7.64.47V598.67c0,52.66-40.2,96.66-93.3,106.4H477.33a118.92,118.92,0,0,1-45.81-18.84V790.18H870.44c39,8.32,68.29,41.5,68.29,81.07,0,45.82-39.21,83.09-87.41,83.09s-87.41-37.27-87.41-83.09a79.46,79.46,0,0,1,11.14-40.53H593a79.37,79.37,0,0,1,11.15,40.53c0,45.82-39.22,83.09-87.41,83.09s-87.42-37.27-87.42-83.09a79.37,79.37,0,0,1,11.15-40.53h-36c-11.28,0-20.5-8.67-20.5-19.26V334.76L234.5,293.3C220.84,289.51,213,275.92,217,263.09ZM851.32,913.81c24.4,0,44.25-19.09,44.25-42.56,0-19-13.05-35.17-31-40.6-.47,0-.93.07-1.4.07H837.87c-17.84,5.49-30.8,21.58-30.8,40.53C807.07,894.72,826.92,913.81,851.32,913.81Zm-334.54,0c24.39,0,44.24-19.09,44.24-42.56,0-19-12.95-35-30.79-40.53H503.32c-17.84,5.49-30.79,21.58-30.79,40.53C472.53,894.72,492.38,913.81,516.78,913.81Z"/></g></svg>